<svg width="147" height="40" viewBox="0 0 147 40" fill="none" xmlns="http://www.w3.org/2000/svg">
<g clip-path="url(#clip0_9264_74348)">
<path fill-rule="evenodd" clip-rule="evenodd" d="M27.7924 6.57017C27.634 6.97337 26.8284 7.59982 26.5925 9.41589C26.4678 10.3656 26.5655 11.3486 26.7846 12.2683C26.8925 12.7148 27.216 13.8344 27.4958 14.1743L30.9875 10.7254C30.4112 9.9657 30.0135 7.7631 30.0337 6.92005C30.0371 6.7601 30.0438 6.60349 30.0438 6.44354C30.0438 6.31025 30.0438 6.32025 30.0573 6.18696C30.0674 6.10366 30.0741 6.04034 30.0876 5.96704C30.2224 5.05734 30.5965 3.85441 31.2774 3.16797C30.8594 3.50452 28.2878 6.05701 27.7924 6.57017Z" fill="white" style="fill:white;fill-opacity:1;"/>
<path fill-rule="evenodd" clip-rule="evenodd" d="M24.5095 9.81061C22.9591 11.4034 22.8513 13.7393 23.2995 15.652C23.404 16.0885 23.7276 17.1948 24.0073 17.6213L27.4991 14.1725C27.2193 13.8326 26.8958 12.7163 26.7879 12.2665C26.5688 11.3468 26.4711 10.3638 26.5958 9.41408C26.8351 7.59802 27.6373 6.97156 27.7957 6.56836L24.5129 9.80728L24.5095 9.81061Z" fill="white" style="fill:white;fill-opacity:1;"/>
<path fill-rule="evenodd" clip-rule="evenodd" d="M31.7424 9.99723C33.2456 8.26448 34.7421 7.76131 35.2982 5.02889C35.578 3.65601 35.1634 1.12353 34.4826 0.0605469L34.4084 0.0905369C34.25 0.187171 33.3299 1.13352 33.1883 1.27348C32.9221 1.53672 32.0727 2.29314 31.9413 2.53972C32.1469 3.17617 32.3053 3.26614 32.585 4.35911C32.8884 5.54205 32.9591 6.92493 32.6255 8.09453C32.5041 8.51773 32.275 9.11086 32.0289 9.4874C31.8772 9.72066 31.7458 9.78064 31.7424 9.9939V9.99723Z" fill="white" style="fill:white;fill-opacity:1;"/>
<path fill-rule="evenodd" clip-rule="evenodd" d="M24.4995 9.81925L27.7822 6.58033C28.2811 6.06384 30.8493 3.51469 31.2672 3.17813C30.5864 3.86457 30.2123 5.06751 30.0775 5.9772C30.0674 6.05051 30.0573 6.11382 30.0472 6.19713C30.0303 6.32709 30.0337 6.32042 30.0337 6.45371C30.0337 6.61366 30.0269 6.77027 30.0236 6.93022C30.0033 7.77327 30.4044 9.97587 30.9774 10.7356L31.7391 9.99919C31.7391 9.78593 31.8739 9.72595 32.0256 9.4927C32.2716 9.11282 32.5008 8.52302 32.6221 8.09983C32.9558 6.93022 32.8884 5.54735 32.5817 4.36441C32.2986 3.27144 32.1436 3.18147 31.938 2.54501C32.0694 2.2951 32.9187 1.54201 33.185 1.27877C33.3266 1.13881 34.2467 0.189132 34.4051 0.0958294L34.4792 0.0658394L34.395 0.00585938C33.9164 0.465706 24.6747 9.4927 24.4961 9.82592L24.4995 9.81925Z" fill="white" style="fill:white;fill-opacity:1;"/>
<path fill-rule="evenodd" clip-rule="evenodd" d="M26.2655 28.2173C25.9925 27.8774 25.8476 26.8778 24.3747 25.7682C23.6063 25.1883 22.6963 24.7785 21.7795 24.5086C21.3346 24.3753 20.1921 24.0954 19.7539 24.1654L21.0313 28.8804C21.9851 28.7672 24.1152 29.5269 24.8432 29.9668C24.9814 30.0501 25.1162 30.1334 25.2544 30.2133C25.369 30.28 25.3656 30.2733 25.4735 30.3533C25.5409 30.4033 25.5915 30.4399 25.6521 30.4866C26.3801 31.0564 27.2463 31.9794 27.5092 32.9058C27.425 32.3793 26.4745 28.9038 26.2723 28.2207L26.2655 28.2173Z" fill="white" style="fill:white;fill-opacity:1;"/>
<path fill-rule="evenodd" clip-rule="evenodd" d="M25.0691 23.7882C24.4489 21.6656 22.4604 20.4027 20.5561 19.8328C20.1213 19.7029 18.9922 19.4263 18.4766 19.453L19.7506 24.1647C20.1854 24.0948 21.3279 24.3747 21.7762 24.508C22.6929 24.7779 23.603 25.1877 24.3714 25.7675C25.8443 26.8805 25.9892 27.8802 26.2622 28.2167L25.0657 23.7849L25.0691 23.7882Z" fill="white" style="fill:white;fill-opacity:1;"/>
<path fill-rule="evenodd" clip-rule="evenodd" d="M21.291 29.8867C22.0561 32.0393 21.7493 33.5755 23.866 35.4149C24.9276 36.3379 27.3543 37.2509 28.625 37.2009L28.6351 37.1243C28.6317 36.941 28.261 35.6815 28.207 35.4882C28.1093 35.1283 27.87 34.0253 27.7183 33.7888C27.0544 33.6455 26.8993 33.7354 25.8006 33.4322C24.6108 33.1023 23.3638 32.4692 22.5077 31.5961C22.1976 31.2796 21.7932 30.7864 21.5876 30.3866C21.4595 30.14 21.473 29.9967 21.2876 29.8867H21.291Z" fill="white" style="fill:white;fill-opacity:1;"/>
<path fill-rule="evenodd" clip-rule="evenodd" d="M25.0657 23.7754L26.2622 28.2072C26.4644 28.8904 27.4149 32.3659 27.4992 32.8924C27.2363 31.966 26.3701 31.043 25.6421 30.4732C25.5814 30.4265 25.5308 30.3865 25.4634 30.3399C25.3556 30.2599 25.3623 30.2666 25.2444 30.1999C25.1062 30.1199 24.9714 30.0366 24.8332 29.9533C24.1052 29.5168 21.9751 28.7571 21.0212 28.867L21.2875 29.8867C21.4729 29.9967 21.4594 30.1366 21.5875 30.3865C21.7964 30.7864 22.1975 31.2796 22.5076 31.5961C23.3637 32.4692 24.6107 33.0989 25.8005 33.4322C26.8992 33.7387 27.0543 33.6488 27.7182 33.7887C27.8699 34.0253 28.1092 35.1283 28.207 35.4882C28.2575 35.6814 28.6283 36.941 28.635 37.1243L28.6249 37.2009L28.7193 37.1609C28.5541 36.5211 25.268 24.0953 25.0657 23.7754Z" fill="white" style="fill:white;fill-opacity:1;"/>
<path fill-rule="evenodd" clip-rule="evenodd" d="M11.5741 11.3468C11.1393 11.4134 10.1922 11.0369 8.48006 11.74C7.5869 12.1065 6.77463 12.683 6.07696 13.3328C5.73992 13.6494 4.92091 14.4858 4.76587 14.8956L9.535 16.1619C9.91248 15.2888 11.6449 13.846 12.3897 13.4394C12.5313 13.3628 12.6728 13.2895 12.811 13.2128C12.9256 13.1462 12.9189 13.1495 13.0402 13.0962C13.1177 13.0629 13.1784 13.0396 13.2492 13.0096C14.112 12.673 15.3523 12.3898 16.296 12.6297C15.7905 12.4398 12.2718 11.5134 11.5707 11.3468H11.5741Z" fill="white" style="fill:white;fill-opacity:1;"/>
<path fill-rule="evenodd" clip-rule="evenodd" d="M7.09471 10.1557C4.92417 9.62585 2.8244 10.6988 1.37176 12.0417C1.03809 12.3483 0.232558 13.178 0 13.6312L4.76576 14.8974C4.9208 14.4876 5.73981 13.6512 6.07685 13.3346C6.77115 12.6848 7.58679 12.1117 8.47995 11.7418C10.1887 11.0387 11.1392 11.4119 11.574 11.3486L7.09471 10.159V10.1557Z" fill="white" style="fill:white;fill-opacity:1;"/>
<path fill-rule="evenodd" clip-rule="evenodd" d="M10.5459 16.4418C12.8142 16.865 14.0039 17.8947 16.6767 17.0017C18.0181 16.5551 20.0302 14.9323 20.62 13.8194L20.556 13.7694C20.3942 13.6828 19.1034 13.3695 18.9079 13.3162C18.5439 13.2196 17.4586 12.873 17.1755 12.883C16.7205 13.3795 16.7205 13.5561 15.9048 14.3459C15.0218 15.1989 13.8455 15.9487 12.6524 16.2486C12.221 16.3552 11.5874 16.4552 11.1323 16.4318C10.8526 16.4185 10.7346 16.3352 10.5459 16.4385V16.4418Z" fill="white" style="fill:white;fill-opacity:1;"/>
<path fill-rule="evenodd" clip-rule="evenodd" d="M7.0813 10.1524L11.5606 11.342C12.2616 11.5086 15.7803 12.435 16.2859 12.6249C15.3422 12.385 14.1019 12.6682 13.239 13.0048C13.1683 13.0314 13.1076 13.0581 13.0334 13.0914C12.9121 13.1447 12.9188 13.1414 12.8043 13.208C12.6661 13.288 12.5245 13.358 12.383 13.4346C11.6347 13.8412 9.9057 15.284 9.52821 16.1571L10.5528 16.4403C10.7416 16.337 10.8595 16.4203 11.1393 16.4336C11.5943 16.4569 12.2279 16.357 12.6593 16.2504C13.8524 15.9538 15.0287 15.2007 15.9118 14.3477C16.7308 13.5579 16.7274 13.3813 17.1824 12.8848C17.4655 12.8715 18.5508 13.2214 18.9148 13.318C19.1103 13.368 20.3978 13.6812 20.5629 13.7712L20.627 13.8212L20.6371 13.7179C19.9967 13.5379 7.46553 10.1391 7.08804 10.1524H7.0813Z" fill="white" style="fill:white;fill-opacity:1;"/>
<path d="M40.9606 19.7C41.5908 19.8866 42.0762 20.1865 42.4098 20.6063C42.7435 21.0262 42.912 21.5427 42.912 22.1558C42.912 23.0622 42.5649 23.7686 41.8706 24.2751C41.1763 24.7816 40.182 25.0348 38.8911 25.0348H33.7883V14.7983H38.6114C39.8146 14.7983 40.7516 15.0282 41.4223 15.4847C42.093 15.9445 42.4267 16.5943 42.4267 17.444C42.4267 17.9505 42.2986 18.3971 42.0425 18.7803C41.7863 19.1668 41.4257 19.47 40.9639 19.6933L40.9606 19.7ZM36.1678 19.0402H38.4024C38.9248 19.0402 39.3192 18.9369 39.5854 18.7269C39.8517 18.517 39.9865 18.2071 39.9865 17.7973C39.9865 17.3874 39.8517 17.0908 39.5787 16.8776C39.3091 16.6643 38.9147 16.5543 38.4024 16.5543H36.1678V19.0402ZM38.8001 23.2788C39.9225 23.2788 40.4853 22.8389 40.4853 21.9625C40.4853 21.0862 39.9225 20.6896 38.8001 20.6896H36.1678V23.2788H38.8001ZM52.821 23.1321V25.0315H44.8062V14.7949H52.6289V16.6976H47.1857V18.9202H51.9919V20.7629H47.1857V23.1321H52.821ZM64.2534 14.7983V25.0348H61.8571V20.8396H57.1554V25.0348H54.759V14.7983H57.1554V18.8336H61.8571V14.7983H64.2534ZM74.7556 16.7276H71.4425V25.0315H69.0765V16.7276H65.7769V14.7983H74.7523V16.7276H74.7556Z" fill="white" style="fill:white;fill-opacity:1;"/>
<path d="M40.7989 37.6307H35.9927L35.0759 39.8234H32.6189L37.233 29.5868H39.599L44.2299 39.8234H41.7156L40.7989 37.6307ZM40.0439 35.8313L38.4025 31.9127L36.7611 35.8313H40.0439ZM52.7773 34.4851C53.4076 34.6717 53.8929 34.9716 54.2266 35.3915C54.5603 35.8114 54.7288 36.3278 54.7288 36.941C54.7288 37.8473 54.3816 38.5538 53.6873 39.0603C52.993 39.5668 51.9987 39.82 50.7079 39.82H45.6051V29.5834H50.4281C51.6314 29.5834 52.5683 29.8134 53.2391 30.2699C53.9098 30.7297 54.2434 31.3795 54.2434 32.2292C54.2434 32.7357 54.1154 33.1822 53.8592 33.5654C53.6031 33.952 53.2424 34.2552 52.7807 34.4785L52.7773 34.4851ZM47.9846 33.8254H50.2192C50.7416 33.8254 51.1359 33.7221 51.4022 33.5121C51.6684 33.3022 51.8033 32.9923 51.8033 32.5824C51.8033 32.1726 51.6684 31.876 51.3954 31.6627C51.1258 31.4495 50.7315 31.3395 50.2192 31.3395H47.9846V33.8254ZM50.6169 38.0639C51.7392 38.0639 52.3021 37.6241 52.3021 36.7477C52.3021 35.8713 51.7392 35.4748 50.6169 35.4748H47.9846V38.0639H50.6169ZM64.385 31.5128H61.0719V39.8167H58.7059V31.5128H55.4062V29.5834H64.3816V31.5128H64.385ZM70.6843 39.9933C69.6091 39.9933 68.6418 39.7634 67.779 39.3069C66.9162 38.8503 66.2421 38.2172 65.7534 37.4142C65.2647 36.6111 65.022 35.7047 65.022 34.7017C65.022 33.6987 65.268 32.7924 65.7534 31.9893C66.2421 31.1862 66.9162 30.5531 67.779 30.0966C68.6418 29.6401 69.6091 29.4102 70.6843 29.4102C71.7594 29.4102 72.7268 29.6401 73.5828 30.0966C74.4389 30.5564 75.1164 31.1862 75.6084 31.9893C76.1005 32.7924 76.3466 33.6987 76.3466 34.7017C76.3466 35.7047 76.1005 36.6111 75.6084 37.4142C75.1164 38.2172 74.4389 38.8503 73.5828 39.3069C72.7268 39.7634 71.7594 39.9933 70.6843 39.9933ZM70.6843 37.974C71.2943 37.974 71.8471 37.834 72.3392 37.5574C72.8312 37.2809 73.2188 36.891 73.4986 36.3945C73.7783 35.898 73.9199 35.3315 73.9199 34.6984C73.9199 34.0653 73.7783 33.4988 73.4986 33.0023C73.2188 32.5058 72.8312 32.1193 72.3392 31.8393C71.8471 31.5628 71.2943 31.4228 70.6843 31.4228C70.0742 31.4228 69.5215 31.5628 69.0294 31.8393C68.5373 32.1159 68.1497 32.5058 67.87 33.0023C67.5902 33.4988 67.4487 34.0653 67.4487 34.6984C67.4487 35.3315 67.5902 35.898 67.87 36.3945C68.1497 36.891 68.5373 37.2775 69.0294 37.5574C69.5215 37.834 70.0742 37.974 70.6843 37.974ZM87.6172 39.8167L87.6037 33.6887L84.5569 38.7337H83.4918L80.445 33.8054V39.8134H78.1969V29.5768H80.1787L84.0547 35.938L87.87 29.5768H89.8518L89.8653 39.8134H87.6172V39.8167ZM99.4473 37.6241H94.6411L93.7244 39.8167H91.2674L95.8815 29.5801H98.2475L102.878 39.8167H100.364L99.4473 37.6241ZM98.6924 35.8247L97.051 31.906L95.4096 35.8247H98.6924ZM111.648 31.5128H108.335V39.8167H105.969V31.5128H102.669V29.5834H111.645V31.5128H111.648ZM113.158 29.5834H115.538V36.2512L120.479 29.5834H122.727V39.82H120.361V33.1656L115.42 39.82H113.158V29.5834ZM129.309 35.6947H127.654V39.8167H125.275V29.5801H127.654V33.7187H129.37L132.09 29.5801H134.618L131.23 34.5218L134.722 39.8167H132.002L129.309 35.6947ZM142.649 37.6241H137.843L136.926 39.8167H134.469L139.083 29.5801H141.449L146.08 39.8167H143.566L142.649 37.6241ZM141.894 35.8247L140.253 31.906L138.611 35.8247H141.894Z" fill="white" style="fill:white;fill-opacity:1;"/>
</g>
<defs>
<clipPath id="clip0_9264_74348">
<rect width="146.087" height="40" fill="white" style="fill:white;fill-opacity:1;"/>
</clipPath>
</defs>
</svg>
